<svg width="1046" height="266" viewBox="0 0 1046 266" fill="none" xmlns="http://www.w3.org/2000/svg">
<g clip-path="url(#clip0_50_1102)">
<path d="M868.393 208.519L931.689 125.525L930.901 148.112L870.232 67.2188H916.193L954.539 120.009L937.204 120.534L976.863 67.2188H1020.46L959.529 147.324V125.262L1022.56 208.519H976.075L935.891 152.314L952.963 154.678L913.042 208.519H868.393Z" fill="#362D28"/>
<path d="M785.748 210.62C770.69 210.62 757.295 207.468 745.564 201.165C734.008 194.861 724.816 186.282 717.987 175.426C711.334 164.395 708.007 151.876 708.007 137.869C708.007 123.686 711.334 111.167 717.987 100.311C724.816 89.2805 734.008 80.7009 745.564 74.5727C757.295 68.2693 770.69 65.1177 785.748 65.1177C800.631 65.1177 813.938 68.2693 825.669 74.5727C837.4 80.7009 846.593 89.1929 853.246 100.049C859.9 110.904 863.226 123.511 863.226 137.869C863.226 151.876 859.9 164.395 853.246 175.426C846.593 186.282 837.4 194.861 825.669 201.165C813.938 207.468 800.631 210.62 785.748 210.62ZM785.748 177.002C792.577 177.002 798.705 175.426 804.133 172.274C809.561 169.123 813.85 164.658 817.002 158.88C820.154 152.927 821.73 145.923 821.73 137.869C821.73 129.639 820.154 122.636 817.002 116.858C813.85 111.08 809.561 106.615 804.133 103.463C798.705 100.311 792.577 98.7355 785.748 98.7355C778.919 98.7355 772.791 100.311 767.363 103.463C761.935 106.615 757.558 111.08 754.231 116.858C751.08 122.636 749.504 129.639 749.504 137.869C749.504 145.923 751.08 152.927 754.231 158.88C757.558 164.658 761.935 169.123 767.363 172.274C772.791 175.426 778.919 177.002 785.748 177.002Z" fill="#362D28"/>
<path d="M621.004 208.63L558.63 63.6301H594.774L649.3 192.059H628.026L683.378 63.6301H716.63L654.05 208.63H621.004Z" fill="#362D28"/>
<path d="M491.516 208.518V67.2187H532.488V208.518H491.516ZM512.002 47.5207C504.473 47.5207 498.345 45.3321 493.617 40.9548C488.89 36.5774 486.526 31.1496 486.526 24.6711C486.526 18.1927 488.89 12.7648 493.617 8.38752C498.345 4.01019 504.473 1.82153 512.002 1.82153C519.531 1.82153 525.659 3.92265 530.387 8.12488C535.114 12.152 537.478 17.4048 537.478 23.8832C537.478 30.7118 535.114 36.4024 530.387 40.9548C525.834 45.3321 519.706 47.5207 512.002 47.5207Z" fill="#362D28"/>
<path d="M374.065 261.572C360.758 261.572 347.889 259.908 335.457 256.582C323.201 253.43 312.958 248.615 304.728 242.136L321.012 212.721C326.965 217.623 334.494 221.475 343.599 224.277C352.879 227.253 361.984 228.742 370.913 228.742C385.446 228.742 395.952 225.503 402.43 219.024C409.084 212.546 412.41 202.916 412.41 190.134V168.86L415.037 133.404L414.511 97.6849V67.2188H453.382V184.881C453.382 211.145 446.553 230.493 432.896 242.924C419.239 255.356 399.629 261.572 374.065 261.572ZM367.762 201.69C354.63 201.69 342.723 198.888 332.043 193.286C321.537 187.507 313.045 179.541 306.567 169.385C300.263 159.055 297.112 147.061 297.112 133.404C297.112 119.571 300.263 107.578 306.567 97.4223C313.045 87.0918 321.537 79.1251 332.043 73.5221C342.723 67.9192 354.63 65.1177 367.762 65.1177C379.668 65.1177 390.174 67.569 399.278 72.4716C408.383 77.1991 415.474 84.6405 420.552 94.7959C425.63 104.776 428.169 117.645 428.169 133.404C428.169 148.987 425.63 161.856 420.552 172.012C415.474 181.992 408.383 189.433 399.278 194.336C390.174 199.239 379.668 201.69 367.762 201.69ZM375.904 168.072C383.082 168.072 389.473 166.671 395.076 163.87C400.679 160.893 405.056 156.779 408.208 151.526C411.36 146.273 412.936 140.232 412.936 133.404C412.936 126.4 411.36 120.359 408.208 115.282C405.056 110.029 400.679 106.002 395.076 103.2C389.473 100.224 383.082 98.7355 375.904 98.7355C368.725 98.7355 362.334 100.224 356.731 103.2C351.128 106.002 346.663 110.029 343.336 115.282C340.185 120.359 338.609 126.4 338.609 133.404C338.609 140.232 340.185 146.273 343.336 151.526C346.663 156.779 351.128 160.893 356.731 163.87C362.334 166.671 368.725 168.072 375.904 168.072Z" fill="#362D28"/>
<path d="M228.621 208.518V67.2187H269.592V208.518H228.621ZM249.106 47.5207C241.577 47.5207 235.449 45.3321 230.722 40.9548C225.994 36.5774 223.63 31.1496 223.63 24.6711C223.63 18.1927 225.994 12.7648 230.722 8.38752C235.449 4.01019 241.577 1.82153 249.106 1.82153C256.635 1.82153 262.764 3.92265 267.491 8.12488C272.219 12.152 274.582 17.4048 274.582 23.8832C274.582 30.7118 272.219 36.4024 267.491 40.9548C262.939 45.3321 256.81 47.5207 249.106 47.5207Z" fill="#362D28"/>
<path d="M45.073 143.105C31.4106 114.382 26.331 48.537 25.6304 17.6301V210.63H98.6718C150.379 205.793 184.594 167.63 190.63 151.13C166.987 180.13 134.432 191.458 123.222 192.13C78.0308 201.705 57.6845 159.735 45.073 143.105Z" fill="#362D28"/>
<path d="M114.216 16.4902L25.4904 17.1301L25.4902 105.317C25.4948 122.894 30.7128 140.078 40.4842 154.694C50.2556 169.311 64.1412 180.703 80.3843 187.429C96.6273 194.156 114.498 195.914 131.735 192.482C148.973 189.05 164.802 180.582 177.221 168.15C189.639 155.717 197.347 143.63 201.502 122.637C204.914 105.395 203.135 87.5268 196.391 71.2913C189.646 55.0559 178.238 41.1832 163.611 31.4284C148.983 21.6735 131.793 16.4749 114.216 16.4902Z" fill="url(#paint0_linear_50_1102)"/>
<rect x="50.6304" y="95.8987" width="11.8414" height="22.2026" rx="5.9207" fill="white"/>
<rect x="70.3662" y="75.6697" width="11.8414" height="62.1674" rx="5.9207" fill="white"/>
<rect x="90.1016" y="50.5068" width="11.8414" height="106.573" rx="5.9207" fill="white"/>
<rect x="131.053" y="70.2424" width="11.8414" height="70.0617" rx="5.9207" fill="white"/>
<rect x="150.63" y="82.6301" width="12" height="37" rx="6" fill="white"/>
<rect x="111.317" y="33.238" width="11.8414" height="144.564" rx="5.9207" fill="white"/>
<path d="M160.296 67.2958L168.63 63.1301L160.296 58.9644L156.13 50.6301L151.965 58.9644L143.63 63.1301L151.965 67.2958L156.13 75.6301L160.296 67.2958Z" fill="white"/>
</g>
<defs>
<linearGradient id="paint0_linear_50_1102" x1="101.63" y1="112.13" x2="239.63" y2="13.1301" gradientUnits="userSpaceOnUse">
<stop stop-color="#F26F21"/>
<stop offset="1" stop-color="#FFE100"/>
</linearGradient>
<clipPath id="clip0_50_1102">
<rect width="1046" height="266" fill="white"/>
</clipPath>
</defs>
</svg>
