<?xml version="1.0" encoding="UTF-8"?>
<svg id="Layer_1" data-name="Layer 1" xmlns="http://www.w3.org/2000/svg" viewBox="0 0 1207 499">
  <defs>
    <style>
      .cls-1 {
        fill-rule: evenodd;
      }

      .cls-1, .cls-2 {
        fill: #f26f21;
      }

      .cls-3 {
        fill: #575757;
      }
    </style>
  </defs>
  <path class="cls-3" d="M387.78,182.03c0-10.68,8.5-18.96,21.14-18.96s21.14,7.85,21.14,18.31c0,11.33-8.5,19.62-21.14,19.62s-21.14-8.28-21.14-18.96ZM391.92,217.33h34v117.26h-34v-117.26Z"/>
  <g>
    <path class="cls-2" d="M452.51,258.31c0-45.33,35.31-78.9,83.48-78.9s83.48,33.35,83.48,78.9-35.53,78.9-83.48,78.9-83.48-33.56-83.48-78.9ZM583.72,258.31c0-28.99-20.49-48.82-47.73-48.82s-47.73,19.83-47.73,48.82,20.49,48.82,47.73,48.82,47.73-19.83,47.73-48.82Z"/>
    <path class="cls-2" d="M778.36,237.39c0,34-25.5,55.14-66.26,55.14h-30.73v42.07h-35.31v-152.57h66.04c40.76,0,66.26,21.14,66.26,55.36ZM742.61,237.39c0-16.78-10.9-26.59-32.48-26.59h-28.77v52.96h28.77c21.58,0,32.48-9.81,32.48-26.37Z"/>
    <path class="cls-2" d="M923.74,306.26v28.33h-118.13v-152.57h115.3v28.33h-80.21v33.13h70.84v27.46h-70.84v35.31h83.04Z"/>
    <path class="cls-2" d="M1047.97,334.6l-36.83-52.96-36.18,52.96h-40.54l56.45-77.59-53.62-74.98h40.1l35.09,49.48,34.44-49.48h38.14l-53.18,73.67,56.89,78.9h-40.76Z"/>
  </g>
  <path class="cls-1" d="M239.53,162.66h0v10.39c-46.03-.01-77.77,23.75-77.77,76.79s31.08,76.98,77.77,76.78v10.39c-65.88,0-119.32-39.05-119.32-87.18s53.44-87.18,119.32-87.18M239.53,162.66c65.89,0,119.32,39.05,119.32,87.18s-53.43,87.18-119.32,87.18v-10.39c46.68-.19,77.98-22.51,77.77-76.78-.21-54.28-31.74-76.77-77.77-76.79v-10.39Z"/>
  <path class="cls-3" d="M290.8,362.5v6.47h-102.5v-6.47h8.48c9.87,0,17.03-2.88,21.49-8.64,2.83-3.72,4.27-12.77,4.27-27.03v-153.94c0-12.06-.78-20.03-2.29-23.87-1.2-2.93-3.61-5.46-7.22-7.55-5.17-2.82-10.59-4.2-16.25-4.2h-8.48v-6.53h102.5v6.53h-8.67c-9.75,0-16.85,2.88-21.31,8.58-2.95,3.78-4.46,12.78-4.46,27.05v153.94c0,12.04.78,20.03,2.29,23.86,1.2,2.95,3.67,5.45,7.4,7.56,5.06,2.82,10.41,4.26,16.07,4.26h8.67Z"/>
</svg>